<svg width="560" height="560" viewBox="0 0 560 560" fill="none" xmlns="http://www.w3.org/2000/svg">
<g clip-path="url(#clip0_1221_14418)">
<path d="M-122.752 296.732C-117.846 391.785 -73.5405 499.797 10.9617 548.267C94.5167 596.185 188.348 527.808 282.291 529.732C353.725 531.286 422.997 577.488 490.361 558.156C564.441 537.103 637.714 492.391 664.936 420.524C691.623 350.065 647.712 272.531 627.068 197.28C608.418 129.233 598.437 57.9143 550.73 4.46367C501.21 -51.0573 432.016 -82.2562 361.132 -100.683C285.398 -120.405 204.583 -133.804 135.452 -103.619C64.5697 -72.6669 27.4317 -1.92721 -14.274 62.7507C-61.9134 136.621 -127.391 206.317 -122.752 296.732Z" stroke="#005F94" stroke-width="2"/>
<path d="M-114.118 292.174C-109.631 385.17 -64.4998 489.704 17.8026 537.678C99.1583 585.083 190.316 522.221 282.199 524.496C352.685 526.417 421.191 569.42 487.173 549.438C559.334 527.984 629.121 482.952 655.824 412.516C681.938 343.624 641.743 268.183 621.731 194.567C603.613 127.793 592.245 58.5115 545.265 6.27298C496.662 -47.8438 429.148 -78.3795 359.884 -96.6036C285.568 -116.224 206.029 -131.028 138.327 -101.043C68.903 -70.2936 35.4408 0.611218 -5.38566 64.2284C-51.9786 136.811 -118.345 203.476 -114.118 292.174Z" stroke="#005F94" stroke-width="2"/>
<path d="M-105.525 287.577C-101.456 378.515 -55.4996 479.571 24.6031 527.05C103.759 573.942 192.243 516.593 282.067 519.22C351.604 521.508 419.345 561.312 483.944 540.68C554.187 518.825 620.487 473.474 646.672 404.467C672.213 337.142 635.733 263.795 616.354 191.815C598.769 126.313 586.014 59.0686 539.759 8.04229C492.074 -44.6705 426.24 -74.5428 358.595 -92.5641C285.698 -112.082 207.434 -128.291 141.161 -98.5073C73.1959 -67.9601 43.4095 3.10974 3.46222 65.6662C-42.0841 136.961 -109.339 200.596 -105.525 287.577Z" stroke="#005F94" stroke-width="2"/>
<path d="M-96.9717 282.933C-93.3218 371.814 -46.5395 469.392 31.3634 516.375C108.32 562.754 194.13 510.92 281.895 513.898C350.484 516.553 417.459 553.157 480.675 531.876C548.999 509.62 611.814 463.95 637.479 396.373C662.448 330.614 629.683 259.362 610.937 189.016C593.884 124.786 579.741 59.5797 534.214 9.76559C487.446 -41.5431 423.292 -70.7521 357.266 -88.5708C285.787 -107.987 208.799 -125.6 143.954 -96.0177C77.4484 -65.6729 51.3379 5.56207 12.2698 67.0576C-32.2299 137.066 -100.374 197.669 -96.9717 282.933Z" stroke="#005F94" stroke-width="2"/>
<path d="M-88.4739 278.235C-85.2428 365.059 -37.6348 459.158 38.0683 505.645C112.826 551.512 195.961 505.191 281.668 508.521C349.307 511.544 415.518 544.948 477.351 523.017C543.756 500.36 603.084 454.371 628.231 388.224C652.627 324.032 623.578 254.873 605.464 186.162C588.943 123.205 573.414 60.0363 528.612 11.4343C482.762 -38.4703 420.288 -67.016 355.881 -84.632C285.821 -103.946 210.109 -122.964 146.692 -93.5827C81.6457 -63.4402 59.211 7.95997 21.0222 68.3947C-22.431 137.115 -91.4638 194.688 -88.4739 278.235Z" stroke="#005F94" stroke-width="2"/>
<path d="M-80.0368 273.474C-77.2244 358.24 -28.7907 448.862 44.7127 494.853C117.271 540.206 197.733 499.4 281.38 503.081C348.071 506.471 413.516 536.676 473.966 514.095C538.452 491.038 594.295 444.729 618.922 380.013C642.746 317.386 617.412 250.322 599.931 183.245C583.943 121.561 567.026 60.4296 522.951 13.0398C478.018 -35.4607 417.224 -63.3431 354.436 -80.7563C285.794 -99.9681 211.358 -120.391 149.37 -91.2107C85.7824 -61.2705 67.0236 10.2947 29.714 69.6687C-12.6927 137.102 -82.6142 191.644 -80.0368 273.474Z" stroke="#005F94" stroke-width="2"/>
<path d="M-71.6736 268.636C-69.2799 351.345 -20.0204 438.489 51.2831 483.984C121.642 528.825 199.43 493.533 281.018 497.565C346.76 501.322 411.44 528.328 470.507 505.097C533.075 481.639 585.431 435.011 609.54 371.724C632.791 310.664 611.172 245.694 594.323 180.253C578.868 119.841 560.564 60.7467 517.215 14.5691C473.199 -32.5274 414.086 -59.7465 352.917 -76.9571C285.694 -96.0668 212.533 -117.895 151.974 -88.9151C89.8452 -59.1773 74.7622 12.5531 38.3318 70.8663C-3.02838 137.012 -73.8386 188.523 -71.6736 268.636Z" stroke="#005F94" stroke-width="2"/>
<path d="M-63.3919 263.711C-61.417 344.363 -11.3318 428.028 57.772 473.027C125.932 517.355 201.045 487.577 280.575 491.961C345.368 496.085 409.283 519.892 466.967 496.011C527.616 472.152 576.486 425.205 600.076 363.348C622.754 303.854 604.85 240.978 588.634 177.172C573.711 118.033 554.02 60.976 511.398 16.0106C468.299 -29.6817 410.867 -56.2375 351.316 -73.2454C285.511 -92.253 213.626 -115.486 154.496 -86.7072C93.8264 -57.1717 82.4191 14.7237 46.868 71.9761C6.55436 136.835 -65.1447 185.315 -63.3919 263.711Z" stroke="#005F94" stroke-width="2"/>
<path d="M-55.2067 258.686C-53.6504 337.28 -2.73955 417.467 64.1645 461.971C130.125 505.786 202.565 481.522 280.035 486.257C343.879 490.749 407.029 511.356 463.33 486.825C522.06 462.566 567.444 415.299 590.516 354.873C612.622 296.945 598.433 236.163 582.849 173.992C568.459 116.125 547.38 61.1057 505.484 17.3525C463.303 -26.9358 407.551 -52.8283 349.619 -69.6334C285.233 -88.539 214.624 -113.177 156.922 -84.599C97.7112 -55.2658 89.9798 16.7947 55.3079 72.9864C16.0408 136.558 -56.547 182.007 -55.2067 258.686Z" stroke="#005F94" stroke-width="2"/>
<path d="M-47.1346 253.544C-45.9971 330.08 5.7394 406.79 70.4437 450.797C134.205 494.1 203.97 475.35 279.382 480.436C342.277 485.295 404.662 502.703 459.58 477.522C516.391 452.862 558.29 405.276 580.842 346.28C602.375 289.919 591.902 231.23 576.951 170.694C563.093 114.1 540.627 61.118 499.457 18.5769C458.194 -24.3072 404.122 -49.5364 347.809 -66.1388C284.841 -84.9423 215.508 -110.985 159.235 -82.6081C101.483 -53.4773 97.4273 18.7483 63.6345 73.8792C25.414 136.163 -48.0626 178.582 -47.1346 253.544Z" stroke="#005F94" stroke-width="2"/>
<path d="M-39.181 248.274C-38.4622 322.752 14.1001 395.983 76.6046 439.496C138.166 482.285 205.258 469.049 278.61 474.487C340.557 479.714 402.176 493.921 455.712 468.091C510.604 443.03 549.016 395.125 571.05 337.559C592.011 282.764 585.252 226.17 570.934 167.268C557.608 111.947 533.755 61.002 493.312 19.6731C452.966 -21.807 400.574 -46.3729 345.881 -62.7726C284.331 -81.4739 216.273 -108.921 161.429 -80.7456C105.136 -51.8171 104.756 20.5737 71.8428 74.6438C34.6688 135.641 -39.6966 175.028 -39.181 248.274Z" stroke="#005F94" stroke-width="2"/>
<path d="M-31.3601 242.858C-31.0601 315.279 22.3279 385.032 82.6326 428.049C141.995 470.325 206.413 462.604 277.706 468.393C338.704 473.987 399.558 484.995 451.711 458.515C504.685 433.053 539.61 384.829 561.125 328.692C581.513 275.464 578.47 220.964 564.784 163.697C551.991 109.649 526.751 60.741 487.034 20.6243C447.605 -19.4517 396.894 -43.3543 343.819 -59.5513C283.688 -78.1505 216.906 -107.003 163.49 -79.028C108.656 -50.3018 111.953 22.254 79.9182 75.2633C43.7908 134.973 -31.4634 171.33 -31.3601 242.858Z" stroke="#005F94" stroke-width="2"/>
<path d="M-23.6818 237.289C-23.8005 307.653 30.4132 373.928 88.5182 416.448C145.681 458.212 207.425 456.004 276.659 462.145C336.708 468.106 396.797 475.915 447.567 448.785C498.622 422.922 530.062 374.379 551.057 319.672C570.873 268.01 571.545 215.604 558.492 159.972C546.231 107.197 519.604 60.3264 480.613 21.4219C442.102 -17.2501 393.071 -40.4893 341.615 -56.4836C282.903 -74.9807 217.396 -105.238 165.409 -77.4641C112.034 -48.9401 119.006 23.7807 87.8511 75.7293C52.7703 134.151 -23.3727 167.478 -23.6818 237.289Z" stroke="#005F94" stroke-width="2"/>
<path d="M-16.1456 231.555C-16.683 299.862 38.3564 362.658 94.2616 404.683C149.225 445.934 208.295 449.241 275.47 455.732C334.57 462.061 393.894 466.67 443.282 438.891C492.418 412.627 520.371 363.765 540.848 310.488C560.091 260.392 564.478 210.08 552.058 156.083C540.33 104.58 512.315 59.7472 474.051 22.0549C436.457 -15.213 389.106 -37.7889 339.269 -53.5805C281.975 -71.9755 217.744 -103.638 167.186 -76.0647C115.27 -47.7431 125.918 25.1429 95.6419 76.0306C61.6076 133.165 -15.4241 163.461 -16.1456 231.555Z" stroke="#005F94" stroke-width="2"/>
<path d="M-8.74766 225.653C-9.70374 291.902 46.1613 351.22 99.8668 392.749C152.631 433.487 209.027 442.308 274.143 449.151C332.295 455.847 390.853 457.257 438.858 428.827C486.075 402.163 510.542 352.981 530.5 301.135C549.17 252.605 557.273 204.387 545.485 152.025C534.289 101.795 504.888 58.9993 467.35 22.5192C430.673 -13.3446 385.003 -35.2572 336.785 -50.8461C280.909 -69.139 217.954 -102.206 168.825 -74.834C118.368 -46.7148 132.691 26.3363 103.294 76.1633C70.3067 132.011 -7.61378 159.275 -8.74766 225.653Z" stroke="#005F94" stroke-width="2"/>
<path d="M-1.48272 219.576C-2.85752 283.767 53.8332 339.608 105.339 380.641C155.904 420.866 209.626 435.201 272.683 442.395C329.886 449.459 387.679 447.669 434.301 418.59C479.599 391.525 500.581 342.024 520.019 291.607C538.117 244.644 549.935 198.52 538.78 147.793C528.116 98.8353 497.328 58.0771 460.516 22.8091C424.757 -11.6506 380.766 -32.8999 334.168 -48.2861C279.71 -66.4769 218.031 -100.949 170.33 -73.7778C121.332 -45.8609 139.331 27.3553 110.814 76.1215C78.8728 130.682 0.0635286 154.915 -1.48272 219.576Z" stroke="#005F94" stroke-width="2"/>
<path d="M5.66694 213.325C3.87342 275.459 61.3899 327.821 110.696 368.358C159.061 408.071 210.11 427.92 271.107 435.466C327.361 442.896 384.39 437.907 429.628 408.178C473.008 380.712 490.503 330.892 509.423 281.906C526.948 236.509 542.482 192.479 531.959 143.386C521.828 95.7014 489.652 56.9806 453.566 22.9248C418.725 -10.1308 376.415 -30.7167 331.435 -45.9003C278.396 -63.989 217.993 -99.8656 171.72 -72.8957C124.181 -45.1811 145.856 28.2001 118.218 75.9055C87.3236 129.178 7.62556 150.381 5.66694 213.325Z" stroke="#005F94" stroke-width="2"/>
<path d="M12.7215 206.892C10.5093 266.969 68.8514 315.853 115.958 355.895C162.124 395.094 210.498 420.457 269.437 428.354C324.742 436.152 381.005 427.963 424.861 397.585C466.322 369.718 480.331 319.579 498.732 272.022C515.685 228.192 534.933 186.256 525.043 138.798C515.444 92.3861 481.881 55.7027 446.522 22.859C412.598 -8.79249 371.968 -28.7152 328.607 -43.6959C276.987 -61.6826 217.859 -98.964 173.016 -72.195C126.935 -44.6828 152.286 28.8635 125.527 75.5081C95.6793 127.494 15.0925 145.666 12.7215 206.892Z" stroke="#005F94" stroke-width="2"/>
<path d="M19.7114 200.27C17.0805 258.289 76.2483 303.696 121.155 343.241C165.122 381.928 210.822 412.805 267.702 421.054C322.058 429.219 377.556 417.831 420.029 386.802C459.571 358.535 470.094 308.076 487.976 261.95C504.356 219.685 527.32 179.844 518.062 134.021C508.996 88.8814 474.046 54.2353 439.413 22.6039C406.406 -7.64358 367.457 -26.9029 325.715 -41.681C275.513 -59.5655 217.661 -98.2518 174.246 -71.6839C129.625 -44.374 158.652 29.3375 132.772 74.9213C103.97 125.62 22.4948 140.761 19.7114 200.27Z" stroke="#005F94" stroke-width="2"/>
<path d="M26.6715 193.452C23.6218 249.414 83.6154 291.342 126.322 330.392C168.09 368.565 211.116 404.957 265.937 413.557C319.344 422.089 374.077 407.501 415.167 375.823C452.79 347.155 459.828 296.377 477.191 251.681C492.998 210.983 519.677 173.235 511.052 129.047C502.518 85.1805 466.181 52.5717 432.274 22.1525C400.185 -6.69092 362.916 -25.2869 322.793 -39.8623C274.009 -57.6447 217.433 -97.7358 175.447 -71.3689C132.284 -44.2613 164.987 29.6152 139.987 74.1383C112.232 123.549 29.8672 135.66 26.6715 193.452Z" stroke="#005F94" stroke-width="2"/>
</g>
<defs>
<clipPath id="clip0_1221_14418">
<rect width="560" height="560" rx="110" fill="white"/>
</clipPath>
</defs>
</svg>
