<svg width="543" height="253" viewBox="0 0 543 253" fill="none" xmlns="http://www.w3.org/2000/svg">
<path d="M-263.876 108.104C-259.516 192.581 -220.141 288.574 -145.042 331.65C-70.7842 374.236 12.6061 313.468 96.0954 315.178C159.581 316.558 221.145 357.62 281.013 340.439C346.85 321.728 411.97 281.991 436.163 218.121C459.88 155.503 420.855 86.5959 402.509 19.7188C385.933 -40.7567 377.063 -104.139 334.665 -151.642C290.655 -200.985 229.16 -228.713 166.164 -245.089C98.8575 -262.617 27.0348 -274.525 -34.4036 -247.698C-97.3989 -220.19 -130.404 -157.322 -167.469 -99.8412C-209.808 -34.1911 -267.999 27.7497 -263.876 108.104Z" stroke="#005F94" stroke-width="2"/>
<path d="M-256.204 104.053C-252.216 186.701 -212.107 279.603 -138.963 322.239C-66.6599 364.37 14.354 308.502 96.0134 310.524C158.656 312.231 219.539 350.449 278.179 332.691C342.311 313.623 404.332 273.603 428.064 211.004C451.272 149.778 415.549 82.7317 397.765 17.3075C381.663 -42.0369 371.56 -103.609 329.807 -150.035C286.613 -198.13 226.611 -225.268 165.054 -241.464C99.0077 -258.901 28.3188 -272.058 -31.85 -245.409C-93.5486 -218.082 -123.287 -155.067 -159.571 -98.5282C-200.979 -34.0222 -259.961 25.225 -256.204 104.053Z" stroke="#005F94" stroke-width="2"/>
<path d="M-248.567 99.9677C-244.951 180.787 -204.108 270.598 -132.919 312.794C-62.5708 354.468 16.0668 303.501 95.8962 305.835C157.696 307.869 217.899 343.243 275.309 324.907C337.736 305.484 396.659 265.18 419.93 203.852C442.629 144.017 410.208 78.8325 392.986 14.8613C377.357 -43.3522 366.021 -103.114 324.914 -148.462C282.535 -195.309 224.027 -221.858 163.908 -237.874C99.1227 -255.22 29.5677 -269.625 -29.3314 -243.156C-89.7334 -216.007 -116.205 -152.846 -151.708 -97.2502C-192.186 -33.8883 -251.957 22.6654 -248.567 99.9677Z" stroke="#005F94" stroke-width="2"/>
<path d="M-240.964 95.8406C-237.721 174.832 -196.144 261.552 -126.91 303.306C-58.5158 344.525 17.7453 298.458 95.7448 301.105C156.701 303.465 216.224 335.996 272.406 317.083C333.127 297.303 388.952 256.715 411.762 196.658C433.952 138.216 404.833 74.8919 388.173 12.3736C373.017 -44.7088 360.449 -102.66 319.987 -146.931C278.423 -192.53 221.408 -218.489 162.728 -234.325C99.2035 -251.58 30.7822 -267.234 -26.8472 -240.943C-85.9525 -213.975 -109.158 -150.667 -143.878 -96.0137C-183.427 -33.7959 -243.988 20.0642 -240.964 95.8406Z" stroke="#005F94" stroke-width="2"/>
<path d="M-233.413 91.6651C-230.541 168.828 -188.231 252.456 -120.951 293.771C-54.5123 334.533 19.3723 293.367 95.5419 296.326C155.655 299.013 214.498 328.7 269.451 309.209C328.466 289.074 381.193 248.202 403.542 189.416C425.224 132.366 399.406 70.9027 383.308 9.83736C368.626 -46.114 354.824 -102.254 315.008 -145.448C274.26 -189.8 218.738 -215.169 161.497 -230.825C99.2329 -247.989 31.9453 -264.892 -24.4143 -238.779C-82.2231 -211.991 -102.161 -148.536 -136.101 -94.8256C-174.719 -33.7519 -236.07 17.4146 -233.413 91.6651Z" stroke="#005F94" stroke-width="2"/>
<path d="M-225.914 87.4341C-223.415 162.768 -180.371 243.306 -115.046 284.179C-50.5617 324.486 20.9466 288.221 95.2863 291.492C154.556 294.505 212.719 321.349 266.443 301.281C323.753 280.789 373.382 239.633 395.269 182.118C416.442 126.46 393.927 66.8581 378.391 7.24571C364.182 -47.5746 349.147 -101.904 309.977 -144.021C270.043 -187.124 216.015 -211.904 160.213 -227.38C99.2094 -244.454 33.0556 -262.605 -22.0343 -236.671C-78.5465 -210.062 -95.218 -146.46 -128.376 -93.6931C-166.064 -33.7633 -228.205 14.7096 -225.914 87.4341Z" stroke="#005F94" stroke-width="2"/>
<path d="M-218.481 83.1352C-216.353 156.641 -172.575 234.087 -109.206 274.52C-46.6758 314.371 22.456 283.006 94.9657 286.59C153.392 289.929 210.875 313.93 263.37 293.284C318.975 272.436 365.506 230.997 386.932 174.752C407.596 120.486 388.382 62.7454 373.409 4.58598C359.673 -49.1033 343.406 -101.622 304.88 -142.661C265.762 -184.517 213.227 -208.708 158.864 -224.003C99.1212 -240.986 34.1012 -260.386 -19.719 -234.63C-74.9346 -208.202 -88.3393 -144.453 -120.716 -92.6284C-157.474 -33.8428 -220.405 11.9366 -218.481 83.1352Z" stroke="#005F94" stroke-width="2"/>
<path d="M-211.122 78.7571C-209.367 150.434 -164.855 224.79 -103.441 264.782C-42.8653 304.177 23.8902 277.713 94.57 281.609C152.153 285.274 208.956 306.431 260.222 285.208C314.122 264.004 357.554 222.281 378.519 167.307C398.674 114.434 382.763 58.5538 368.351 1.84733C355.088 -50.7109 337.588 -101.419 299.709 -141.381C261.406 -181.989 210.364 -205.59 157.44 -220.705C98.9576 -237.598 35.0714 -258.246 -17.4792 -232.669C-71.3981 -206.42 -81.536 -142.525 -113.131 -91.6429C-148.959 -34.0013 -212.68 9.08443 -211.122 78.7571Z" stroke="#005F94" stroke-width="2"/>
<path d="M-203.847 74.2913C-202.464 144.14 -157.218 215.404 -97.7591 254.956C-39.1384 293.895 25.2407 272.332 94.0906 276.54C150.831 280.532 206.954 298.845 256.99 277.045C309.185 255.484 349.519 213.478 370.023 159.775C389.669 108.293 377.059 54.2743 363.21 -0.979188C350.421 -52.4064 331.688 -101.304 294.453 -140.189C256.966 -179.549 207.418 -202.56 155.932 -217.495C98.7103 -234.297 35.958 -256.193 -15.3229 -230.796C-67.9452 -204.726 -74.8163 -140.684 -105.63 -90.7452C-140.528 -34.2476 -205.039 6.14453 -203.847 74.2913Z" stroke="#005F94" stroke-width="2"/>
<path d="M-196.675 69.7218C-195.664 137.742 -149.684 205.915 -92.1797 245.026C-35.5136 283.51 26.489 266.847 93.509 271.367C149.406 275.685 204.849 291.156 253.657 268.777C304.146 246.861 341.382 204.57 361.425 152.139C380.562 102.049 371.254 49.8911 357.967 -3.90938C345.65 -54.2055 325.685 -101.292 289.096 -139.1C252.424 -177.212 204.369 -199.634 154.322 -214.389C98.361 -231.1 36.7425 -254.245 -13.2687 -229.026C-64.5944 -203.136 -68.1987 -138.947 -98.2313 -89.9511C-132.199 -34.5976 -197.499 3.10098 -196.675 69.7218Z" stroke="#005F94" stroke-width="2"/>
<path d="M-189.606 65.0376C-188.967 131.229 -142.253 196.311 -86.704 234.982C-31.9926 273.01 27.6337 261.247 92.8237 266.08C147.877 270.725 202.64 283.351 250.219 260.396C299.003 238.123 333.141 195.549 352.723 144.388C371.351 95.69 365.345 45.3933 352.62 -6.95425C340.777 -56.1194 319.578 -101.396 283.635 -138.126C247.778 -174.99 201.216 -196.822 152.609 -211.397C97.908 -228.018 37.4231 -252.411 -11.3183 -227.37C-61.3475 -201.661 -61.6849 -137.325 -90.9361 -89.2718C-123.974 -35.0623 -190.064 -0.057343 -189.606 65.0376Z" stroke="#005F94" stroke-width="2"/>
<path d="M-182.657 60.2239C-182.39 124.587 -134.943 186.578 -81.3484 224.808C-28.5916 262.38 28.6583 255.518 92.0184 260.663C146.229 265.634 200.312 275.417 246.661 251.884C293.74 229.255 324.78 186.397 343.9 136.507C362.02 89.2015 359.315 40.7659 347.152 -10.1287C335.783 -58.1628 313.351 -101.628 278.054 -137.281C243.012 -172.898 197.944 -194.141 150.775 -208.535C97.3349 -225.065 37.9839 -250.707 -9.4879 -225.845C-58.2204 -200.315 -55.2911 -135.833 -83.7608 -88.7219C-115.868 -35.6566 -182.749 -3.34513 -182.657 60.2239Z" stroke="#005F94" stroke-width="2"/>
<path d="M-175.832 55.2748C-175.937 117.809 -127.756 176.709 -76.1167 214.498C-25.3144 251.615 29.559 249.653 91.0892 255.11C144.456 260.408 197.859 267.348 242.98 243.237C288.354 220.252 316.295 177.11 334.954 128.491C352.565 82.5777 353.162 36.0031 341.562 -13.4385C330.665 -60.3416 307.001 -101.996 272.349 -136.572C238.123 -170.941 194.547 -191.594 148.817 -205.809C96.6379 -222.247 38.4207 -249.138 -7.78144 -224.455C-55.2173 -199.105 -49.0212 -134.476 -76.7095 -88.3075C-107.887 -36.3862 -175.557 -6.76837 -175.832 55.2748Z" stroke="#005F94" stroke-width="2"/>
<path d="M-169.132 50.1793C-169.61 110.885 -120.695 166.694 -71.0102 204.043C-22.1626 240.703 30.3344 243.642 90.0347 249.412C142.559 255.036 195.281 259.132 239.173 234.444C282.842 211.103 307.685 167.677 325.883 120.329C342.985 75.8075 346.884 31.094 335.845 -16.8947C325.422 -62.6667 300.525 -102.511 266.518 -136.009C233.108 -169.13 191.026 -189.194 146.734 -203.228C95.8156 -219.576 38.7321 -247.715 -6.20026 -223.211C-52.3395 -198.04 -42.8766 -133.265 -69.7836 -88.0394C-100.031 -37.2622 -168.491 -10.3379 -169.132 50.1793Z" stroke="#005F94" stroke-width="2"/>
<path d="M-162.558 44.9334C-163.408 103.811 -113.759 156.529 -66.0293 193.437C-19.1363 229.641 30.9843 237.481 88.8546 243.563C140.535 249.513 192.578 250.766 235.241 225.5C277.204 201.803 298.949 158.094 316.686 112.017C333.279 68.887 340.48 26.0345 330.004 -20.5013C320.054 -65.1422 293.924 -103.176 260.562 -135.597C227.967 -167.47 187.378 -186.944 144.526 -200.798C94.8678 -217.056 38.9182 -246.443 -4.74456 -222.117C-49.5872 -197.127 -36.8574 -132.204 -62.983 -87.9217C-92.3002 -38.2886 -161.55 -14.0579 -162.558 44.9334Z" stroke="#005F94" stroke-width="2"/>
<path d="M-156.102 39.5324C-157.324 96.5812 -106.941 146.208 -61.1668 182.675C-16.2284 218.424 31.5158 231.164 87.5562 237.558C138.394 243.836 189.756 242.245 231.19 216.402C271.448 192.348 290.095 148.355 307.371 103.549C323.455 61.8113 333.958 20.8198 324.043 -24.2629C314.567 -67.7728 287.204 -103.996 254.488 -135.339C222.708 -165.965 183.613 -184.849 142.199 -198.524C93.8015 -214.69 38.9857 -245.326 -3.40734 -221.179C-46.9533 -196.368 -30.9568 -131.299 -56.301 -87.9592C-84.688 -39.4701 -154.728 -17.933 -156.102 39.5324Z" stroke="#005F94" stroke-width="2"/>
<path d="M-149.748 33.9773C-151.342 89.1975 -100.225 135.733 -56.4058 171.76C-13.422 207.053 31.9458 224.694 86.1563 231.4C136.151 238.004 186.833 233.569 227.038 207.149C265.591 182.739 281.139 138.462 297.954 94.9269C313.529 54.5815 327.334 15.4511 317.982 -28.1787C308.978 -70.5576 280.383 -104.97 248.312 -135.236C217.348 -164.614 179.746 -182.909 139.771 -196.403C92.6338 -212.479 38.9517 -244.363 -2.17164 -220.394C-44.421 -195.764 -25.1576 -130.548 -49.7205 -88.1508C-77.1774 -40.8057 -148.007 -21.9622 -149.748 33.9773Z" stroke="#005F94" stroke-width="2"/>
<path d="M-143.478 28.2604C-145.444 81.652 -93.5941 125.097 -51.7296 160.683C-10.7004 195.52 32.291 218.061 84.6716 225.08C133.823 232.01 183.825 224.732 222.801 197.734C259.648 172.968 272.099 128.408 288.452 86.1432C303.519 47.1898 320.625 9.92045 311.835 -32.2564C303.305 -73.5042 273.476 -106.106 242.052 -135.295C211.903 -163.424 175.794 -181.13 137.258 -194.444C91.3813 -210.429 38.833 -243.562 -1.0206 -219.772C-41.9734 -195.321 -19.4432 -129.958 -43.2247 -88.5041C-69.7515 -42.3032 -141.371 -26.1532 -143.478 28.2604Z" stroke="#005F94" stroke-width="2"/>
<path d="M-137.266 22.376C-139.604 73.9391 -87.0202 114.293 -47.1107 149.438C-8.03607 183.82 32.5789 211.261 83.1295 218.592C131.437 225.849 180.76 215.728 218.507 188.152C253.649 163.03 263.001 118.186 278.894 77.1921C293.451 39.6307 313.859 4.22242 305.632 -36.5015C297.575 -76.6183 266.513 -107.409 235.734 -135.521C206.4 -162.403 171.784 -179.519 134.687 -192.653C90.0715 -208.547 38.657 -242.929 0.0730831 -219.317C-39.5831 -195.046 -13.7861 -129.537 -36.7862 -89.025C-62.3829 -43.9681 -134.792 -30.5117 -137.266 22.376Z" stroke="#005F94" stroke-width="2"/>
<path d="M-131.078 16.3159C-133.788 66.0505 -80.4703 103.313 -42.5158 138.018C-5.39578 171.944 32.8428 204.286 81.5635 211.929C129.028 219.512 177.67 206.547 214.189 178.394C247.625 152.916 253.879 107.788 269.311 68.0653C283.359 31.896 307.069 -1.65132 299.404 -40.9223C291.82 -79.908 259.526 -108.888 229.392 -135.923C200.873 -161.557 167.751 -178.083 132.093 -191.037C88.7377 -206.841 38.457 -242.471 1.14276 -219.038C-37.2168 -194.946 -8.15299 -129.29 -30.3717 -89.7215C-55.0383 -45.8086 -128.238 -35.0459 -131.078 16.3159Z" stroke="#005F94" stroke-width="2"/>
</svg>
