<svg width="543" height="268" viewBox="0 0 543 268" fill="none" xmlns="http://www.w3.org/2000/svg">
<path d="M660.534 301.156C680.291 210.228 666.205 96.9682 598.924 29.5654C532.394 -37.0734 426.337 3.35875 338.209 -22.5565C271.219 -42.3476 217.724 -103.704 149.216 -102.749C73.9314 -101.892 -6.66143 -78.5102 -50.7784 -17.6978C-94.0291 41.9231 -72.4962 126.331 -72.3265 202.615C-72.1894 271.592 -81.0701 341.432 -49.7778 404.093C-17.3061 469.173 39.9651 516.356 102.106 551.924C168.491 589.958 241.291 623.33 314.25 612.589C389.057 601.575 442.239 544.369 498.175 494.054C562.067 436.59 641.715 387.64 660.534 301.156Z" stroke="#026843" stroke-width="2"/>
<path d="M651.222 303.24C670.846 214.361 655.089 104.17 589.755 37.7994C525.169 -27.7914 423.049 8.12499 336.954 -17.5935C270.953 -37.4877 217.359 -95.6296 149.989 -93.7065C76.4114 -91.9796 -0.974741 -67.4022 -44.2354 -7.80566C-86.5441 50.4846 -67.9787 131.964 -67.9863 206.543C-68.0251 274.183 -75.0744 342.457 -44.1564 403.789C-12.1899 467.309 43.6663 513.435 104.332 548.396C169.405 585.969 240.641 620.34 312.2 609.422C385.58 598.224 435.337 539.92 490.171 490.38C552.745 433.862 632.455 387.998 651.222 303.24Z" stroke="#026843" stroke-width="2"/>
<path d="M641.934 305.373C661.425 218.542 643.996 111.42 580.611 46.0818C517.968 -18.461 419.785 12.9395 335.722 -12.5822C270.711 -32.5795 217.018 -87.5068 150.786 -84.616C78.9155 -82.0188 4.7361 -56.2459 -37.6682 2.13475C-79.0348 59.0943 -63.4371 137.645 -63.622 210.52C-63.8366 276.823 -69.0547 343.53 -38.5109 403.532C-7.04962 465.492 47.3918 510.561 106.582 544.916C170.343 582.029 240.015 617.398 310.175 606.303C382.127 594.922 428.458 535.519 482.191 486.754C543.448 431.182 623.218 388.406 641.934 305.373Z" stroke="#026843" stroke-width="2"/>
<path d="M632.675 307.559C652.034 222.776 632.934 118.724 571.497 54.4174C510.797 -9.07732 416.55 17.8074 334.52 -7.5175C270.498 -27.618 216.707 -79.3308 151.612 -75.4722C81.4492 -72.0047 10.4764 -45.0362 -31.0714 12.1284C-71.4961 67.7573 -58.866 143.379 -59.2282 214.55C-59.6186 279.516 -63.0054 344.657 -32.8358 403.329C-1.87979 463.729 51.1466 507.742 108.862 541.489C171.311 578.143 239.419 614.509 308.18 603.238C378.703 591.673 421.61 531.171 474.241 483.182C534.18 428.555 614.011 388.866 632.675 307.559Z" stroke="#026843" stroke-width="2"/>
<path d="M623.454 309.811C642.68 227.076 621.909 126.094 562.419 62.819C503.663 0.372285 413.354 22.7412 333.356 -2.38691C270.323 -22.5905 216.433 -71.0887 152.476 -66.2624C84.0203 -61.9246 16.2543 -33.7606 -24.4372 22.1881C-63.9198 76.4862 -54.2573 149.18 -54.7968 218.646C-55.3631 282.274 -56.9187 345.849 -27.1232 403.192C3.32754 462.032 54.939 504.988 111.179 538.129C172.316 574.322 238.86 611.687 306.222 600.238C375.317 588.49 414.798 526.89 466.328 479.675C524.949 425.995 604.841 389.393 623.454 309.811Z" stroke="#026843" stroke-width="2"/>
<path d="M614.272 312.138C633.364 231.452 610.922 133.539 553.381 71.2961C496.568 9.89737 410.195 27.7505 332.231 2.81914C270.187 -17.4875 216.198 -62.7712 153.379 -56.9771C86.6301 -51.769 22.0708 -22.4095 -17.7644 32.3233C-56.305 85.2907 -49.6102 155.056 -50.327 222.817C-51.069 285.109 -50.7933 347.117 -21.3721 403.13C8.57341 460.41 58.77 502.309 113.535 534.844C173.36 570.577 238.34 608.939 304.303 597.314C371.97 585.382 408.025 522.683 458.453 476.244C515.757 423.509 595.71 389.994 614.272 312.138Z" stroke="#026843" stroke-width="2"/>
<path d="M605.142 314.556C624.102 235.918 599.988 141.074 544.395 79.8636C489.525 19.513 407.09 32.8503 331.157 8.11571C270.103 -12.2941 216.015 -54.3631 154.334 -47.6014C89.2925 -41.523 27.9399 -10.968 -11.0389 42.549C-48.6376 94.1857 -44.9104 161.022 -45.8045 227.079C-46.7224 288.033 -44.6153 348.476 -15.5683 403.159C13.872 458.879 62.6536 499.721 115.943 531.649C174.456 566.922 237.873 606.283 302.436 594.48C368.675 582.365 401.305 518.568 450.631 472.903C506.618 421.115 586.632 390.687 605.142 314.556Z" stroke="#026843" stroke-width="2"/>
<path d="M596.066 317.078C614.894 240.489 589.109 148.714 535.464 88.5353C482.537 29.2326 404.039 38.0541 330.139 13.5163C270.074 -6.99664 215.887 -45.8511 155.343 -38.1216C92.0094 -31.1729 33.8635 0.577591 -4.25892 52.8787C-40.9155 103.185 -40.1559 167.092 -41.2273 231.445C-42.3211 291.062 -38.3827 349.939 -9.70993 403.291C19.2251 457.452 66.5918 497.237 118.406 528.559C175.607 563.371 237.46 603.73 300.624 591.75C365.434 579.452 394.639 514.556 442.864 469.667C497.533 418.824 577.608 391.483 596.066 317.078Z" stroke="#026843" stroke-width="2"/>
<path d="M587.055 319.718C605.749 245.177 578.294 156.471 526.596 97.325C475.613 39.0703 401.052 43.376 329.184 19.035C270.109 -1.58107 215.822 -37.221 156.417 -28.5237C94.7901 -20.7047 39.851 12.2413 2.58491 63.3264C-33.1297 112.302 -35.3377 173.281 -36.5864 235.929C-37.856 294.209 -32.0863 351.519 -3.78775 403.542C24.642 456.143 70.5938 494.872 120.933 525.587C176.822 559.939 237.111 601.295 298.876 589.139C362.258 576.657 388.038 510.662 435.161 466.548C488.512 416.651 568.648 392.398 587.055 319.718Z" stroke="#026843" stroke-width="2"/>
<path d="M578.121 322.499C596.683 250.006 567.556 164.369 517.806 106.255C468.766 49.0485 398.142 48.8384 328.307 24.6941C270.221 3.97494 215.836 -28.4504 157.568 -18.7854C97.6485 -10.0961 45.9161 24.0454 9.50637 73.9147C-25.2662 121.559 -30.4419 179.61 -31.8678 240.553C-33.3133 297.496 -25.7123 353.241 2.21204 403.934C30.1366 454.974 74.6735 492.646 123.537 522.755C178.114 556.647 236.84 599.001 297.205 586.668C359.159 574.003 381.513 506.909 427.535 463.57C479.569 414.619 559.766 393.453 578.121 322.499Z" stroke="#026843" stroke-width="2"/>
<path d="M569.267 325.43C587.696 254.985 556.898 172.418 509.096 115.336C461.999 59.1771 395.312 54.4512 327.51 30.5037C270.413 9.68144 215.929 -19.5293 158.799 -8.89658C100.587 0.662998 52.061 36 16.5076 84.6534C-17.323 130.967 -25.4662 186.089 -27.0695 245.328C-28.6908 300.934 -19.2585 355.112 8.29162 404.475C35.7109 453.956 78.8328 490.571 126.221 520.073C179.487 553.505 236.648 596.858 295.614 584.347C356.14 571.499 375.069 503.306 419.989 460.742C470.706 412.737 550.963 394.658 569.267 325.43Z" stroke="#026843" stroke-width="2"/>
<path d="M560.5 328.532C578.796 260.136 546.326 180.638 500.473 124.588C455.319 69.4773 392.569 60.2356 326.799 36.4849C270.692 15.5595 216.108 -10.4367 160.116 1.16376C103.612 11.5936 58.2926 48.1262 23.5956 95.5636C-9.29304 140.547 -20.4039 192.74 -22.1845 250.274C-23.9816 304.543 -12.7181 357.155 14.4578 405.189C41.3719 453.11 83.0789 488.668 128.992 517.563C180.946 550.535 236.543 594.885 294.11 582.198C353.207 569.166 368.711 499.875 412.53 458.086C461.929 411.027 542.247 396.035 560.5 328.532Z" stroke="#026843" stroke-width="2"/>
<path d="M551.826 331.817C569.989 265.469 535.849 189.04 491.943 134.022C448.732 79.9593 389.92 66.2017 326.182 42.6478C271.064 21.6193 216.382 -1.16228 161.528 11.4059C106.73 22.706 64.6178 60.4341 30.7772 106.656C-1.16939 150.308 -15.2479 199.573 -17.2057 255.403C-19.1787 308.334 -6.08385 359.38 20.7178 406.084C47.1267 452.445 87.4187 486.946 131.857 515.235C182.498 547.747 236.532 593.095 292.699 580.231C350.368 567.016 362.447 496.626 405.164 455.612C453.246 409.499 533.625 397.594 551.826 331.817Z" stroke="#026843" stroke-width="2"/>
<path d="M543.248 335.292C561.278 270.993 525.466 197.633 483.509 143.647C442.241 90.6328 387.365 72.3594 325.661 49.0023C271.531 27.8706 216.75 8.30365 163.034 21.8395C109.944 34.01 71.0381 72.9336 38.0538 117.939C7.04928 160.261 -9.99679 206.597 -12.132 260.722C-14.2807 312.317 0.645366 361.797 27.0728 407.171C52.9764 451.972 91.8536 485.416 134.816 513.099C184.146 545.15 236.616 591.496 291.384 578.455C347.625 565.057 356.278 493.568 397.894 453.329C444.658 408.162 525.098 399.345 543.248 335.292Z" stroke="#026843" stroke-width="2"/>
<path d="M534.754 338.962C552.651 276.711 515.168 206.421 475.159 153.467C435.834 101.5 384.896 78.7113 325.224 55.5509C272.084 34.3161 217.204 17.9637 164.625 32.4674C113.242 45.5081 77.5433 85.6272 45.4154 129.417C15.3529 170.408 -4.66088 213.816 -6.97338 266.236C-9.29798 316.493 7.45947 364.408 33.5127 408.451C58.9111 451.693 96.3733 484.08 137.861 511.156C185.878 542.747 236.784 590.092 290.153 576.874C344.966 563.292 350.194 490.704 390.708 451.241C436.155 407.019 516.656 401.289 534.754 338.962Z" stroke="#026843" stroke-width="2"/>
<path d="M526.342 342.832C544.107 282.629 504.953 215.408 466.891 163.486C429.51 112.567 382.508 85.2623 324.869 62.2987C272.718 40.9608 217.739 27.823 166.299 43.2943C116.623 57.2054 84.1307 98.52 52.8592 141.094C23.7386 180.754 0.757286 221.233 -1.73251 271.949C-4.23295 320.869 14.3558 367.217 40.0348 409.931C64.9279 451.613 100.975 482.944 140.987 509.413C187.693 540.544 237.035 588.886 289.005 575.491C342.389 561.726 344.192 488.039 383.605 449.351C427.734 406.076 508.296 403.433 526.342 342.832Z" stroke="#026843" stroke-width="2"/>
<path d="M517.993 346.894C535.625 288.739 494.8 224.587 458.686 173.697C423.248 123.827 380.184 92.0062 324.577 69.2393C273.415 47.7983 218.338 37.8751 168.035 54.3142C120.066 69.0955 90.7807 111.606 60.3656 152.964C32.1871 191.293 6.23811 228.844 3.57101 277.855C0.89476 325.438 21.3148 370.22 46.6196 411.604C71.0075 451.726 105.64 482 144.177 507.862C189.571 538.533 237.349 587.873 287.919 574.302C339.875 560.353 338.253 485.568 376.564 447.655C419.375 405.325 499.998 405.769 517.993 346.894Z" stroke="#026843" stroke-width="2"/>
<path d="M509.688 351.153C527.187 295.047 484.69 233.964 450.525 184.106C417.03 135.284 377.902 98.9471 324.328 76.377C274.156 54.8329 218.979 48.1242 169.814 65.531C123.553 81.1827 97.4741 124.888 67.9153 165.03C40.6788 202.029 11.7622 236.651 8.91785 283.958C6.06575 330.204 28.3171 373.42 53.2477 413.474C77.1303 452.036 110.348 481.253 147.409 506.509C191.491 536.72 237.706 587.058 286.876 573.309C337.404 559.177 332.357 483.293 369.566 446.155C411.06 404.772 491.744 408.303 509.688 351.153Z" stroke="#026843" stroke-width="2"/>
<path d="M501.393 355.606C518.759 301.548 474.591 243.535 442.374 194.709C410.822 146.934 375.632 106.082 324.09 83.7088C274.907 62.0615 219.631 58.5675 171.604 76.942C127.05 93.4639 104.178 138.365 75.4757 177.291C49.1812 212.959 17.297 244.653 14.2753 290.255C11.2474 335.164 35.33 376.814 59.8864 415.538C83.2638 452.54 115.066 480.7 150.653 505.35C193.423 535.1 238.073 586.436 285.845 572.511C334.944 558.195 326.472 481.212 362.58 444.85C402.756 404.412 483.501 411.03 501.393 355.606Z" stroke="#026843" stroke-width="2"/>
<path d="M493.079 360.253C510.313 308.243 464.474 253.3 434.204 205.506C404.595 158.779 373.342 113.411 323.833 91.2346C275.639 69.4842 220.265 69.2047 173.375 88.547C130.529 105.939 110.863 152.036 83.0172 189.746C57.6647 224.084 22.8129 252.849 19.6139 296.746C16.4101 340.318 42.324 380.401 66.5062 417.796C89.3783 453.238 119.766 480.341 153.877 504.384C195.335 533.674 238.422 586.009 284.794 571.906C332.465 557.407 320.567 479.326 355.574 443.738C394.433 404.246 475.238 413.952 493.079 360.253Z" stroke="#026843" stroke-width="2"/>
</svg>
