<svg width="560" height="560" viewBox="0 0 560 560" fill="none" xmlns="http://www.w3.org/2000/svg" xmlns:xlink="http://www.w3.org/1999/xlink">
<g clip-path="url(#clip0_1221_14547)">
<path d="M673.667 310.674C693.877 217.664 679.468 101.811 610.646 32.8646C542.594 -35.3 434.108 6.05791 343.962 -20.4507C275.439 -40.6949 220.719 -103.456 150.642 -102.479C73.6337 -101.603 -8.80444 -77.6855 -53.9315 -15.4808C-98.1725 45.5053 -76.1465 131.846 -75.973 209.876C-75.8328 280.433 -84.9168 351.871 -52.908 415.968C-19.6928 482.538 38.8897 530.801 102.453 567.183C170.358 606.088 244.825 640.224 319.454 629.237C395.975 617.971 450.375 559.456 507.591 507.989C572.946 449.209 654.418 399.137 673.667 310.674Z" stroke="#026843" stroke-width="2"/>
<path d="M664.14 312.805C684.214 221.891 668.096 109.177 601.267 41.2869C535.202 -25.8057 430.743 10.933 342.677 -15.3743C275.165 -35.724 220.344 -95.1972 151.431 -93.2301C76.1689 -91.4636 -2.98911 -66.3235 -47.2402 -5.36242C-90.5176 54.2624 -71.5272 137.607 -71.535 213.894C-71.5746 283.083 -78.7854 352.92 -47.1595 415.656C-14.461 480.63 42.6742 527.812 104.729 563.574C171.291 602.008 244.159 637.165 317.357 625.997C392.416 614.543 443.312 554.904 499.402 504.23C563.409 446.418 644.943 399.504 664.14 312.805Z" stroke="#026843" stroke-width="2"/>
<path d="M654.641 314.987C674.578 226.167 656.751 116.593 591.914 49.7588C527.837 -16.2618 427.406 15.8577 341.418 -10.2484C274.919 -30.7035 219.997 -86.8885 152.248 -83.9315C78.7317 -81.2748 2.85387 -54.9118 -40.5213 4.80551C-82.8351 63.0692 -66.8803 143.418 -67.0694 217.962C-67.2889 285.783 -72.6265 354.017 -41.3833 415.393C-9.20176 478.772 46.4861 524.873 107.032 560.014C172.252 597.978 243.52 634.156 315.287 622.807C388.885 611.165 436.278 550.402 491.241 500.521C553.9 443.676 635.497 399.92 654.641 314.987Z" stroke="#026843" stroke-width="2"/>
<path d="M645.17 317.223C664.972 230.499 645.434 124.065 582.591 58.2855C520.501 -6.66308 424.097 20.8372 340.189 -5.06752C274.701 -25.6282 219.677 -78.525 153.092 -74.5781C81.3229 -71.0312 8.72514 -43.4453 -33.774 15.0282C-75.1243 71.9308 -62.205 149.284 -62.5754 222.084C-62.9748 288.538 -66.4392 355.17 -35.5788 415.186C-3.91396 476.969 50.3266 521.989 109.363 556.51C173.242 594.002 242.91 631.201 313.245 619.671C385.383 607.842 429.272 545.955 483.108 496.867C544.419 440.99 626.078 400.392 645.17 317.223Z" stroke="#026843" stroke-width="2"/>
<path d="M635.737 319.527C655.403 234.898 634.156 131.603 573.305 66.8796C513.203 3.0031 420.826 25.8842 338.997 0.180738C274.521 -20.4854 219.397 -70.0941 153.976 -65.1573C83.9524 -60.7201 14.6348 -31.9113 -26.9884 25.3184C-67.3751 80.8598 -57.4914 155.218 -58.0432 226.274C-58.6224 291.36 -60.2136 356.39 -29.736 415.045C1.41198 475.233 54.2052 519.172 111.733 553.072C174.269 590.094 242.338 628.314 311.242 616.603C381.919 604.586 422.304 541.576 475.013 493.28C534.977 438.371 616.698 400.93 635.737 319.527Z" stroke="#026843" stroke-width="2"/>
<path d="M626.346 321.907C645.876 239.374 622.92 139.218 564.061 75.5507C505.947 12.7462 417.597 31.0081 337.847 5.50592C274.383 -15.2657 219.157 -61.5862 154.9 -55.6595C86.6233 -50.3321 20.5859 -20.3004 -20.1613 35.6856C-59.5844 89.8658 -52.7363 161.228 -53.4695 230.541C-54.2286 294.259 -53.9465 357.687 -23.8517 414.982C6.77944 473.574 58.1254 516.432 114.144 549.712C175.339 586.263 241.807 625.504 309.28 613.612C378.496 601.408 415.377 537.273 466.96 489.77C525.576 435.828 607.36 401.546 626.346 321.907Z" stroke="#026843" stroke-width="2"/>
<path d="M617.006 324.381C636.401 243.942 611.735 146.926 554.869 84.3144C498.742 22.5819 414.42 36.2246 336.749 10.9237C274.297 -9.95339 218.97 -52.9857 155.877 -46.0691C89.3461 -39.8515 26.5887 -8.5969 -13.2825 46.1454C-51.7421 98.9644 -47.9295 167.331 -48.844 234.9C-49.783 297.25 -47.6276 359.077 -17.9156 415.012C12.1987 472.008 62.0973 513.785 116.607 546.444C176.46 582.525 241.328 622.786 307.37 610.714C375.125 598.321 408.502 533.063 458.958 486.353C516.227 433.379 598.073 402.254 617.006 324.381Z" stroke="#026843" stroke-width="2"/>
<path d="M607.723 326.96C626.981 248.617 600.606 154.741 545.732 93.1842C491.594 32.5238 411.298 41.5473 335.706 16.4476C274.266 -4.53496 218.838 -44.279 156.909 -36.3726C92.1246 -29.2648 32.6474 3.21269 -6.34787 56.7113C-43.8438 108.169 -43.0668 173.54 -44.1627 239.366C-45.2815 300.348 -41.2529 360.573 -11.9237 415.147C17.6739 470.548 66.125 511.244 119.125 543.283C177.636 578.892 240.906 620.175 305.515 607.921C371.81 595.341 401.684 528.959 451.013 483.042C506.933 431.035 588.842 403.069 607.723 326.96Z" stroke="#026843" stroke-width="2"/>
<path d="M598.505 329.661C617.628 253.413 589.543 162.676 536.662 102.175C484.511 42.587 408.243 46.9912 334.73 22.0929C274.302 1.0048 218.773 -35.4511 158.007 -26.5548C94.9695 -18.5567 38.7725 15.1436 0.653119 67.3985C-35.8792 117.495 -38.1378 179.87 -39.4151 243.953C-40.7137 303.567 -34.8119 362.19 -5.86544 415.404C23.2153 469.209 70.2192 508.824 121.711 540.243C178.88 575.382 240.549 617.685 303.728 605.25C368.561 592.483 394.931 524.976 443.134 479.852C497.707 428.813 579.677 404.004 598.505 329.661Z" stroke="#026843" stroke-width="2"/>
<path d="M589.367 332.505C608.354 258.352 578.56 170.755 527.672 111.31C477.508 52.7932 405.267 52.5783 333.834 27.8813C274.417 6.68769 218.787 -26.48 159.185 -16.5938C97.8937 -7.70554 44.9768 27.2177 7.73342 78.2288C-27.8353 126.964 -33.1295 186.344 -34.5881 248.682C-36.0667 306.929 -28.2917 363.95 0.272031 415.804C28.836 468.013 74.3926 506.548 124.375 537.345C180.202 572.014 240.272 615.338 302.019 602.722C365.391 589.767 388.258 521.137 435.333 476.806C488.559 426.734 570.592 405.083 589.367 332.505Z" stroke="#026843" stroke-width="2"/>
<path d="M580.309 335.503C599.16 263.446 567.657 178.988 518.761 120.599C470.585 63.1543 402.371 58.3201 333.017 33.8243C274.612 12.5253 218.881 -17.3542 160.443 -6.4781C100.898 3.30036 51.2609 39.4465 14.8934 89.2138C-19.7117 136.588 -28.0414 192.972 -29.6814 253.567C-31.3398 310.446 -21.6916 365.865 6.4893 416.359C34.5364 466.972 78.6457 504.426 127.119 534.603C181.604 568.801 240.074 613.146 300.39 600.349C362.302 587.206 381.664 517.452 427.613 473.914C479.491 424.81 561.586 406.317 580.309 335.503Z" stroke="#026843" stroke-width="2"/>
<path d="M571.341 338.677C590.056 268.714 556.844 187.396 509.94 130.063C463.752 73.6902 399.566 64.2369 332.29 39.9424C274.898 18.5378 219.065 -8.0535 161.791 3.81253C103.992 14.4812 57.6355 51.8502 22.1441 100.374C-11.4975 146.387 -22.8628 199.775 -24.6842 258.627C-26.5224 314.138 -15.001 367.955 12.7971 417.088C40.3275 466.106 82.9894 502.479 129.954 532.036C183.097 565.762 239.967 611.128 298.852 598.151C359.302 584.82 375.162 513.942 419.984 471.197C470.514 423.06 552.671 407.725 571.341 338.677Z" stroke="#026843" stroke-width="2"/>
<path d="M562.47 342.036C581.049 274.169 546.126 195.99 501.216 139.712C457.015 84.4121 396.856 70.3396 331.659 46.2464C275.279 24.7364 219.345 1.43318 163.235 14.2891C107.183 25.848 64.106 64.4399 29.4906 111.72C-3.18744 156.372 -17.5882 206.765 -19.591 263.872C-21.6091 318.016 -8.21441 370.231 19.2009 418.004C46.2144 465.426 87.429 500.718 132.884 529.654C184.685 562.91 239.956 609.297 297.409 596.138C356.399 582.62 368.755 510.618 412.45 468.666C461.632 421.497 543.852 409.32 562.47 342.036Z" stroke="#026843" stroke-width="2"/>
<path d="M553.694 345.591C572.137 279.819 535.505 204.78 492.587 149.558C450.375 95.3294 394.242 76.6377 331.125 52.7458C275.757 31.1303 219.721 11.1153 164.775 24.9611C110.469 37.4102 70.6728 77.225 36.9333 123.261C5.2188 166.552 -12.2176 213.949 -14.4016 269.313C-16.5996 322.089 -1.33177 372.702 25.7008 419.115C52.1975 464.942 91.9648 499.152 135.911 527.468C186.37 560.253 240.041 607.661 296.063 594.321C353.592 580.616 362.444 507.49 405.012 466.33C452.847 420.129 535.129 411.11 553.694 345.591Z" stroke="#026843" stroke-width="2"/>
<path d="M545.006 349.346C563.314 285.669 524.972 213.77 484.047 159.603C443.822 106.447 391.717 83.1359 330.679 59.4453C276.322 37.7243 220.186 20.9975 166.403 35.8332C113.844 49.1725 77.3274 90.2102 44.4639 135.003C13.713 176.932 -6.75895 221.334 -9.12439 274.955C-11.5022 326.362 5.6389 375.374 32.2886 420.426C58.2686 464.657 96.5885 497.786 139.026 525.482C188.143 557.797 240.214 606.225 294.805 592.704C350.873 578.811 356.221 504.562 397.663 464.195C444.149 418.961 526.494 413.099 545.006 349.346Z" stroke="#026843" stroke-width="2"/>
<path d="M536.402 353.303C554.573 291.722 514.522 222.962 475.589 169.851C437.352 117.767 389.274 89.8364 330.315 66.347C276.971 44.5205 220.733 31.0819 168.114 46.9075C117.301 61.1371 84.0651 103.398 52.0775 146.946C22.2902 187.515 -1.2173 228.921 -3.76411 280.798C-6.32179 330.838 12.6925 378.247 38.9595 421.939C64.4226 464.575 101.295 496.623 142.223 523.698C189.999 555.542 240.47 604.991 293.63 591.29C348.237 577.209 350.081 501.836 390.396 462.262C435.535 417.995 517.942 415.292 536.402 353.303Z" stroke="#026843" stroke-width="2"/>
<path d="M527.862 357.459C545.898 297.973 504.137 232.352 467.197 180.297C430.947 129.284 386.897 96.7351 330.017 73.447C277.684 51.5151 221.345 41.3646 169.891 58.1801C120.824 73.2999 90.8678 116.783 59.7562 159.088C30.9325 198.295 4.38945 236.706 1.66128 286.839C-1.07625 335.512 19.8113 381.319 45.6955 423.651C70.6418 464.691 106.067 495.658 145.486 522.113C191.92 553.486 240.792 603.956 292.52 590.074C345.665 575.805 344.006 499.308 383.194 460.527C426.986 417.228 509.455 417.682 527.862 357.459Z" stroke="#026843" stroke-width="2"/>
<path d="M519.366 361.814C537.265 304.424 493.796 241.943 458.848 190.943C424.586 141.003 384.563 103.834 329.762 80.7475C278.441 58.7101 222.001 51.8479 171.71 69.6532C124.39 85.6632 97.7138 130.37 67.4782 171.431C39.6181 209.277 10.0395 244.692 7.12995 293.082C4.21256 340.386 26.9733 384.591 52.4747 425.563C76.9042 465.007 110.882 494.894 148.792 520.728C193.884 551.63 241.156 603.121 291.453 589.058C343.138 574.602 337.975 496.98 376.036 458.992C418.48 416.661 501.011 420.273 519.366 361.814Z" stroke="#026843" stroke-width="2"/>
<path d="M510.883 366.37C528.647 311.075 483.468 251.733 450.513 201.789C418.238 152.921 382.242 111.133 329.521 88.2476C279.212 66.1047 222.67 62.5306 173.544 81.3259C127.969 98.2261 104.574 144.155 75.2141 183.973C48.3176 220.458 15.7034 252.877 12.6125 299.523C9.51523 345.46 34.1493 388.063 59.2679 427.674C83.1806 465.523 115.711 494.329 152.112 519.542C195.862 549.974 241.534 602.486 290.4 588.241C340.624 573.598 331.957 494.853 368.892 457.657C409.988 416.294 492.581 423.064 510.883 366.37Z" stroke="#026843" stroke-width="2"/>
<path d="M502.379 371.123C520.007 317.923 473.118 261.721 442.155 212.833C411.869 165.036 379.9 118.629 329.257 95.9452C279.96 73.6968 223.318 73.4109 175.355 93.196C131.527 110.986 111.411 158.139 82.9278 196.712C56.9948 231.836 21.3451 261.26 18.0728 306.162C14.7957 350.731 41.3029 391.733 66.0387 429.984C89.4346 466.237 120.518 493.961 155.41 518.555C197.818 548.515 241.89 602.048 289.324 587.623C338.087 572.791 325.917 492.922 361.725 456.52C401.474 416.124 484.129 426.052 502.379 371.123Z" stroke="#026843" stroke-width="2"/>
<g opacity="0.1" filter="url(#filter0_f_1221_14547)">
<rect x="126" y="-173" width="309" height="670" fill="url(#pattern0)"/>
<rect x="126" y="-173" width="309" height="670" fill="black" fill-opacity="0.2"/>
</g>
</g>
<defs>
<filter id="filter0_f_1221_14547" x="46" y="-253" width="469" height="830" filterUnits="userSpaceOnUse" color-interpolation-filters="sRGB">
<feFlood flood-opacity="0" result="BackgroundImageFix"/>
<feBlend mode="normal" in="SourceGraphic" in2="BackgroundImageFix" result="shape"/>
<feGaussianBlur stdDeviation="40" result="effect1_foregroundBlur_1221_14547"/>
</filter>
<pattern id="pattern0" patternContentUnits="objectBoundingBox" width="1" height="1">
<use xlink:href="#image0_1221_14547" transform="translate(-0.000681525) scale(0.0008901 0.000410509)"/>
</pattern>
<clipPath id="clip0_1221_14547">
<rect width="560" height="560" rx="110" fill="white"/>
</clipPath>
</defs>
</svg>
