<svg width="560" height="560" viewBox="0 0 560 560" fill="none" xmlns="http://www.w3.org/2000/svg" xmlns:xlink="http://www.w3.org/1999/xlink">
<g clip-path="url(#clip0_1221_14620)">
<path d="M694.716 118.635C666.349 19.8149 593.899 -80.5529 494.287 -105.698C395.794 -130.552 315.104 -29.4912 217.085 -2.59997C142.529 17.7532 59.2879 -9.68762 -5.92807 31.4572C-77.6959 76.4867 -142.833 146.239 -153.505 230.477C-163.965 313.062 -99.3858 381.382 -59.5259 454.455C-23.4995 520.537 4.32551 592.742 66.9495 634.473C131.963 677.83 211.451 689.458 289.566 687.085C373.034 684.586 460.231 673.848 524.624 620.703C590.648 566.21 611.892 480.11 639.362 399.002C670.744 306.364 721.67 212.641 694.716 118.635Z" stroke="#A68100"/>
<path d="M686.867 126.103C659.439 29.3262 586.983 -67.1162 489.777 -92.4152C393.693 -117.405 314.429 -22.9877 218.463 2.89878C144.802 22.5722 63.1386 -1.72715 -0.482351 39.6778C-70.1597 84.5396 -131.599 153.556 -142.082 236.124C-152.331 316.88 -92.1223 384.134 -53.3194 455.675C-18.1576 520.579 10.609 590.206 72.182 630.88C135.899 673.038 213.48 684.483 289.864 682.395C371.835 680.224 458.051 671.362 521.009 618.87C585.568 565.039 602.955 479.897 629.772 400.178C660.382 309.222 712.973 218.424 686.867 126.103Z" stroke="#A68100"/>
<path d="M679.069 133.602C652.579 38.8678 580.117 -53.6492 485.317 -79.1021C391.642 -104.227 313.805 -16.4538 219.89 8.4278C147.125 27.4214 67.0392 6.26355 5.01318 47.9286C-62.5736 92.6227 -120.315 160.903 -130.609 241.802C-140.647 320.728 -84.8089 386.915 -47.0632 456.926C-12.7658 520.65 16.9424 587.7 77.4644 627.319C139.885 668.277 215.559 679.539 290.212 677.735C370.685 675.893 455.92 668.907 517.445 617.066C580.538 563.899 594.067 479.713 620.231 401.386C650.07 312.11 704.326 224.237 679.069 133.602Z" stroke="#A68100"/>
<path d="M671.327 141.136C645.776 48.4442 573.308 -40.1474 480.913 -65.7542C389.648 -91.0153 313.237 -9.8852 221.375 13.9917C149.505 32.3054 70.9968 14.2891 10.5658 56.2143C-54.9305 100.741 -108.974 168.285 -119.079 247.514C-128.906 324.611 -77.4385 389.732 -40.7499 458.211C-7.31696 520.756 23.3328 585.229 82.8039 623.791C143.928 663.55 217.695 674.629 290.617 673.11C369.593 671.597 453.847 666.486 513.937 615.297C575.565 562.793 585.237 479.565 610.748 402.627C639.815 315.033 695.735 230.086 671.327 141.136Z" stroke="#A68100"/>
<path d="M663.652 148.712C639.04 58.0631 566.566 -26.6031 476.577 -52.3639C387.721 -77.7608 312.736 -3.27409 222.926 19.598C151.951 37.2319 75.0215 22.3572 16.1854 64.5425C-47.2203 108.901 -97.5656 175.709 -107.482 253.269C-117.098 328.537 -70.0011 392.591 -34.3696 459.539C-1.80119 520.905 29.7902 582.8 88.2102 620.307C148.038 658.866 219.898 669.762 291.09 668.527C368.567 667.343 451.841 664.108 510.496 613.571C570.659 561.73 576.473 479.459 601.331 403.912C629.626 317.998 687.212 235.976 663.652 148.712Z" stroke="#A68100"/>
<path d="M656.059 156.336C632.385 67.7301 559.906 -13.0108 472.322 -38.9254C385.875 -64.4581 312.317 3.38511 224.559 25.2524C154.479 42.2065 79.1276 30.4733 21.8866 72.9187C-39.4287 117.11 -86.0759 183.181 -95.8037 259.072C-105.209 332.51 -62.4822 395.498 -27.9077 460.916C3.79617 521.102 36.3292 580.419 93.6983 616.87C152.23 654.229 222.182 664.943 291.643 663.992C367.623 663.138 449.916 661.778 507.137 611.893C565.835 560.714 567.792 479.401 591.996 405.244C619.52 321.012 678.77 241.915 656.059 156.336Z" stroke="#A68100"/>
<path d="M648.558 164.018C625.823 77.4545 553.337 0.639016 468.159 -25.4296C384.122 -51.098 311.99 10.1017 226.284 30.9642C157.1 47.2385 83.3258 38.6468 27.6797 81.3523C-31.545 125.375 -74.4942 190.711 -84.0334 264.933C-93.2271 336.541 -54.8712 398.462 -21.3538 462.349C9.48552 521.356 42.9603 578.095 99.2783 613.491C156.514 649.65 224.559 660.181 292.289 659.515C366.771 658.99 448.083 659.505 503.87 610.273C561.102 559.756 559.202 479.4 582.753 406.634C609.505 324.083 670.421 247.912 648.558 164.018Z" stroke="#A68100"/>
<path d="M641.163 171.765C619.366 87.2443 546.875 14.3542 464.102 -11.8683C382.474 -37.6725 311.769 16.8837 228.115 36.7415C159.826 52.3359 87.6301 46.8858 33.5791 89.8514C-23.5552 133.707 -62.8064 198.306 -72.1568 270.859C-81.1395 340.638 -47.1541 401.492 -14.6938 463.848C15.2811 521.675 49.6974 575.838 104.964 610.177C160.903 645.137 227.042 655.485 293.041 655.103C366.025 654.907 446.356 657.298 500.709 608.717C556.476 558.864 550.718 479.465 573.616 408.089C599.597 327.219 662.177 253.973 641.163 171.765Z" stroke="#A68100"/>
<path d="M633.895 179.588C613.037 97.1101 540.54 28.1454 460.172 1.76899C380.954 -24.171 311.675 23.7418 230.073 42.5947C162.679 57.5093 92.0611 55.2007 39.6051 98.4265C-15.4386 142.114 -50.9918 205.977 -60.1536 276.861C-68.9251 344.81 -39.3103 404.598 -7.90708 465.423C21.2033 522.071 56.5612 573.656 110.777 606.939C165.42 640.7 229.651 650.865 293.92 650.768C365.405 650.9 444.756 655.167 497.675 607.238C551.976 558.047 542.361 479.606 564.606 409.621C589.815 330.431 654.061 260.111 633.895 179.588Z" stroke="#A68100"/>
<path d="M626.77 187.502C606.85 107.067 534.347 42.0273 456.385 15.497C379.576 -10.5789 311.724 30.6905 232.174 48.5387C165.675 62.7734 96.6351 63.6064 45.7741 107.092C-7.17911 150.612 -39.0343 213.738 -48.0073 282.953C-56.5678 349.073 -31.3235 407.794 -0.977381 467.089C27.2685 522.557 63.568 571.564 116.733 603.792C170.079 636.353 232.403 646.336 294.941 646.523C364.929 646.984 443.299 653.127 494.784 605.85C547.619 557.322 534.147 479.838 555.739 411.243C580.176 333.734 646.087 266.339 626.77 187.502Z" stroke="#A68100"/>
<path d="M619.802 195.514C600.821 117.121 528.312 56.0075 452.756 29.3232C378.356 3.11159 311.93 37.7375 234.432 54.5809C168.829 68.1358 101.367 72.1103 52.1008 115.856C1.2381 159.208 -26.919 221.599 -35.7034 289.144C-44.0528 353.434 -23.179 411.089 6.11003 468.853C33.4914 523.142 70.7326 569.571 122.847 600.743C174.897 632.105 235.313 641.904 296.121 642.376C364.611 643.166 442 651.184 492.05 604.559C543.42 556.694 526.091 480.168 547.029 412.963C570.695 337.135 638.271 272.666 619.802 195.514Z" stroke="#A68100"/>
<path d="M613.007 203.636C594.964 127.287 522.45 70.0983 449.299 43.2602C377.308 16.9128 312.309 44.8952 236.863 60.7338C172.155 73.6089 106.271 80.7249 58.5997 124.731C9.82753 167.915 -14.6316 229.569 -23.2273 295.446C-31.3656 357.906 -14.8623 414.495 13.3696 470.727C39.8865 523.837 78.0693 567.689 129.132 597.805C179.886 627.967 238.395 637.584 297.472 638.34C364.464 639.459 440.873 649.353 489.489 603.38C539.394 556.177 518.207 480.608 538.492 414.794C561.386 340.647 630.627 279.103 613.007 203.636Z" stroke="#A68100"/>
<path d="M606.397 211.88C589.293 137.573 516.773 84.3101 446.028 57.318C376.446 30.8348 312.874 52.1738 239.48 67.0076C175.667 79.2029 111.36 89.4605 65.2843 133.727C18.6027 176.743 -2.15842 237.661 -10.5654 301.868C-18.4926 362.499 -6.35991 418.021 20.815 472.723C46.4673 524.653 85.5917 565.928 135.604 594.988C185.061 623.95 241.663 633.384 299.009 634.425C364.504 635.873 439.931 647.642 487.113 602.321C535.552 555.781 510.508 481.17 530.14 416.746C552.263 344.28 623.169 285.662 606.397 211.88Z" stroke="#A68100"/>
<path d="M599.976 220.25C583.811 147.987 511.285 98.6489 442.945 71.5029C375.773 44.8839 313.627 59.5795 242.285 73.4086C179.367 84.924 116.639 98.3231 72.1577 142.849C27.5666 185.698 10.5035 245.88 2.28517 308.418C-5.43089 367.219 2.33127 421.675 28.4491 474.845C53.2369 525.597 93.3029 564.293 142.264 592.298C190.425 620.06 245.12 629.312 300.735 630.637C364.732 632.413 439.179 646.058 484.926 601.39C531.9 555.512 502.999 481.858 521.977 418.825C543.329 348.04 615.899 292.347 599.976 220.25Z" stroke="#A68100"/>
<path d="M593.742 228.759C578.514 158.538 505.982 113.126 440.048 85.8258C375.286 59.071 314.566 67.1231 245.276 79.9474C183.254 90.783 122.103 107.324 79.2171 152.11C36.7165 194.791 23.3514 254.236 15.3218 315.105C7.81685 372.077 11.2085 425.466 36.2691 477.106C60.1925 526.678 101.2 562.797 149.11 589.745C195.975 616.309 248.763 625.377 302.647 626.986C365.146 629.092 438.612 644.613 482.925 600.596C528.434 555.381 495.675 482.685 514.001 421.042C534.581 351.938 608.816 299.17 593.742 228.759Z" stroke="#A68100"/>
<path d="M587.686 237.408C573.397 169.23 500.86 127.743 437.331 100.289C374.978 73.3988 315.684 74.8074 248.447 86.6269C187.32 96.7827 127.747 116.465 86.4558 161.511C46.0458 204.025 36.3787 262.734 28.5377 321.934C21.2439 377.076 20.265 429.398 44.2686 479.507C67.3274 527.9 109.277 561.442 156.136 587.334C201.704 612.698 252.585 621.583 304.739 623.477C365.739 625.912 438.225 643.308 481.104 599.943C525.147 555.391 488.531 483.652 506.203 423.399C526.012 355.976 601.912 306.134 587.686 237.408Z" stroke="#A68100"/>
<path d="M581.79 246.209C568.44 180.073 495.897 142.512 434.774 114.904C374.83 87.8775 316.963 82.6427 251.777 93.4574C191.545 102.933 133.551 125.757 93.8545 171.064C55.535 213.409 49.566 271.382 41.9137 328.913C34.8309 382.225 29.4815 433.481 52.428 482.059C74.6223 529.272 117.513 560.237 163.321 585.073C207.593 609.237 256.567 617.94 306.99 620.118C366.493 622.882 437.998 642.154 479.442 599.441C522.02 555.552 481.547 484.77 498.565 425.908C517.602 360.166 595.167 313.249 581.79 246.209Z" stroke="#A68100"/>
<path d="M576.038 255.171C563.626 191.079 491.077 157.442 432.36 129.681C374.825 102.519 318.384 90.6403 255.251 100.45C195.914 109.246 139.497 135.212 101.396 180.778C65.1672 222.956 62.8962 280.193 55.4326 336.054C48.5609 387.537 38.841 437.727 60.7304 484.774C82.0602 530.808 125.893 559.194 170.65 582.975C213.625 605.94 260.692 614.459 309.384 616.922C367.389 620.015 437.913 641.162 477.923 599.101C519.036 555.875 474.705 486.051 491.071 428.578C509.336 364.518 588.566 320.527 576.038 255.171Z" stroke="#A68100"/>
<path d="M570.4 264.312C558.926 202.262 486.371 172.551 430.06 144.636C374.934 117.338 319.92 98.816 258.838 107.621C200.397 115.737 145.558 144.844 109.052 190.671C74.9136 232.681 76.3406 289.181 69.0658 343.374C62.4052 393.027 48.3147 442.15 69.147 487.667C89.6124 532.521 134.386 558.33 178.093 581.055C219.772 602.82 264.931 611.157 311.893 613.904C368.4 617.326 437.943 640.349 476.519 598.94C516.166 556.376 467.978 487.509 483.691 431.427C501.185 369.048 582.079 327.982 570.4 264.312Z" stroke="#A68100"/>
<path d="M564.845 273.652C554.31 213.645 481.749 187.86 427.843 159.79C375.127 132.357 321.539 107.191 262.51 114.992C204.964 122.428 151.703 154.676 116.792 200.763C84.7436 242.606 89.8687 298.37 82.7824 350.893C76.333 398.717 57.8719 446.774 77.6472 490.759C97.248 534.434 142.964 557.666 185.619 579.335C226.001 599.9 269.254 608.054 314.485 611.086C369.494 614.836 438.057 639.735 475.198 598.978C513.38 557.077 461.335 489.168 476.394 434.476C493.116 373.777 575.676 335.637 564.845 273.652Z" stroke="#A68100"/>
<g opacity="0.1" filter="url(#filter0_f_1221_14620)">
<rect x="126" y="-173" width="309" height="670" fill="url(#pattern0)"/>
<rect x="126" y="-173" width="309" height="670" fill="black" fill-opacity="0.2"/>
</g>
</g>
<defs>
<filter id="filter0_f_1221_14620" x="46" y="-253" width="469" height="830" filterUnits="userSpaceOnUse" color-interpolation-filters="sRGB">
<feFlood flood-opacity="0" result="BackgroundImageFix"/>
<feBlend mode="normal" in="SourceGraphic" in2="BackgroundImageFix" result="shape"/>
<feGaussianBlur stdDeviation="40" result="effect1_foregroundBlur_1221_14620"/>
</filter>
<pattern id="pattern0" patternContentUnits="objectBoundingBox" width="1" height="1">
<use xlink:href="#image0_1221_14620" transform="translate(-0.000681525) scale(0.0008901 0.000410509)"/>
</pattern>
<clipPath id="clip0_1221_14620">
<rect width="560" height="560" rx="110" fill="white"/>
</clipPath>
</defs>
</svg>
