<svg width="543" height="243" viewBox="0 0 543 243" fill="none" xmlns="http://www.w3.org/2000/svg">
<path d="M-8.4135 589.489C65.5627 660.887 178.49 711.583 277.329 683.553C375.054 655.83 394.403 527.964 465.844 455.667C520.235 400.762 606.045 382.906 641.951 314.666C681.589 239.785 703.123 146.809 670.246 68.5214C638.012 -8.23017 547.925 -35.1074 476.869 -78.4599C412.628 -117.676 352.428 -166.295 277.329 -171.123C199.347 -176.164 124.695 -146.49 58.2319 -105.378C-12.8045 -61.4791 -82.9503 -8.58161 -112.144 69.6395C-142.076 149.844 -117.423 235.031 -100.659 319.008C-81.5179 414.925 -78.7592 521.555 -8.4135 589.489Z" stroke="#A68100"/>
<path d="M-5.35064 579.097C66.7914 649.194 177.762 696.488 274.594 669.794C370.3 643.394 391.736 521.994 461.902 451.593C515.857 397.725 598.73 377.937 633.125 310.269C671.036 236.579 689.736 146.089 657.53 69.3417C626.028 -5.71985 540.259 -33.8587 470.884 -76.4139C407.981 -115.041 348.255 -160.957 274.594 -165.396C198.334 -170.047 125.425 -141.168 60.3188 -101.167C-9.5849 -58.3022 -79.8191 -7.51941 -108.097 69.42C-137.091 148.318 -109.577 230.747 -92.942 313.193C-73.9729 407.269 -74.1188 512.198 -5.35064 579.097Z" stroke="#A68100"/>
<path d="M-2.34612 568.704C67.9617 637.501 176.974 681.392 271.8 656.035C365.488 630.957 389.01 516.024 457.901 447.519C511.421 394.687 591.356 372.967 624.24 305.871C660.425 233.372 676.29 145.369 644.756 70.1613C613.985 -3.21021 532.535 -32.6107 464.841 -74.3687C403.276 -112.407 344.023 -155.62 271.8 -159.669C197.263 -163.93 126.097 -135.846 62.3473 -96.9571C-6.42364 -55.1261 -76.7463 -6.45795 -104.108 69.1996C-132.165 146.791 -101.788 226.462 -85.2831 307.378C-66.4863 399.612 -69.5368 502.84 -2.34612 568.704Z" stroke="#A68100"/>
<path d="M0.591561 558.309C69.0652 625.807 176.12 666.295 268.94 642.274C360.608 618.518 386.217 510.052 453.834 443.443C506.918 391.648 583.916 367.996 615.288 301.472C649.747 230.163 662.778 144.647 631.914 70.9794C601.876 -0.702153 524.744 -31.3643 458.731 -72.3251C398.504 -109.774 339.725 -150.284 268.94 -153.945C196.125 -157.814 126.702 -130.526 64.309 -92.7488C-3.32922 -51.9515 -73.7403 -5.39801 -100.185 68.9778C-127.305 145.262 -94.0666 222.176 -77.6909 301.561C-59.0664 391.953 -65.0215 493.48 0.591561 558.309Z" stroke="#A68100"/>
<path d="M3.44965 547.91C70.0892 614.108 175.186 651.194 266 628.509C355.65 606.075 383.345 504.076 449.687 439.363C502.336 388.604 576.396 363.021 606.257 297.069C638.989 226.951 649.185 143.921 618.993 71.7935C589.687 1.80194 516.873 -30.122 452.541 -70.2854C393.653 -107.145 335.347 -144.952 266 -148.224C194.908 -151.703 127.227 -125.21 66.1911 -88.5444C-0.314393 -48.7809 -70.814 -4.3421 -96.343 68.752C-122.525 143.73 -86.4245 217.885 -70.1784 295.74C-51.7262 384.291 -60.5859 484.117 3.44965 547.91Z" stroke="#A68100"/>
<path d="M6.21351 537.511C71.0189 602.409 174.158 636.093 262.966 614.744C350.597 593.632 380.378 498.099 445.446 435.283C497.659 385.56 568.782 358.046 597.132 292.666C628.137 223.738 635.499 143.195 605.978 72.6072C577.404 4.30578 508.908 -28.8798 446.257 -68.246C388.707 -104.517 330.874 -139.621 262.966 -142.504C193.596 -145.592 127.659 -119.894 67.9789 -84.3401C2.6062 -45.6105 -67.9818 -3.28638 -92.5947 68.5259C-117.839 142.197 -78.8767 213.595 -62.76 289.919C-44.4802 376.628 -56.2445 474.753 6.21351 537.511Z" stroke="#A68100"/>
<path d="M8.86933 527.108C71.8405 590.706 173.022 620.987 259.823 600.974C345.436 581.185 377.304 492.119 441.096 431.198C492.875 382.512 561.06 353.066 587.899 288.259C617.177 220.521 621.705 142.465 592.855 73.4168C565.013 6.80529 500.835 -27.6419 439.865 -66.2109C383.654 -101.893 326.294 -134.293 259.823 -136.787C192.176 -139.485 127.982 -114.582 69.6588 -80.1402C5.4187 -42.4444 -65.2578 -2.23498 -88.9545 68.2955C-113.261 140.66 -71.437 209.3 -55.4498 284.093C-37.3423 368.961 -52.0112 465.385 8.86933 527.108Z" stroke="#A68100"/>
<path d="M11.3992 516.702C72.5362 579 171.76 605.879 256.555 587.202C340.149 568.735 374.103 486.136 436.621 427.111C487.964 379.462 553.213 348.084 578.539 283.849C606.091 217.302 607.785 141.732 579.606 74.2238C552.496 9.30236 492.636 -26.4065 433.347 -64.1782C378.474 -99.2708 321.587 -128.968 256.555 -131.074C190.63 -133.381 128.179 -109.273 71.2127 -75.9429C8.10534 -39.2808 -62.6596 -1.18603 -85.4402 68.0627C-108.809 139.12 -64.1232 205.003 -48.2654 278.265C-30.3302 361.291 -47.9037 456.014 11.3992 516.702Z" stroke="#A68100"/>
<path d="M13.7817 506.292C73.0845 567.291 170.351 590.767 253.139 573.426C334.715 556.282 370.755 480.149 431.998 423.021C482.906 376.407 545.217 343.098 569.033 279.435C594.858 214.079 593.717 140.995 566.209 75.0271C539.831 11.7956 484.29 -25.175 426.681 -62.1494C373.147 -96.6529 316.734 -123.647 253.139 -125.364C188.937 -127.28 128.229 -103.968 72.6192 -71.7493C10.6446 -36.121 -60.2088 -0.140987 -82.0733 67.826C-104.504 137.577 -56.9568 200.702 -41.2284 272.433C-23.4656 353.618 -43.9437 446.64 13.7817 506.292Z" stroke="#A68100"/>
<path d="M15.9952 495.876C73.4638 555.575 168.773 575.649 249.555 559.644C329.112 543.822 367.238 474.156 427.207 418.924C477.679 373.347 537.053 338.105 559.357 275.015C583.456 210.849 579.48 140.252 552.644 75.824C526.997 14.2825 475.774 -23.9497 419.847 -60.127C367.651 -94.0413 311.711 -118.333 249.555 -119.66C187.075 -121.186 128.11 -98.6691 73.8566 -67.5621C13.0148 -32.9676 -57.927 0.897772 -78.8754 67.583C-100.368 136.027 -49.9594 196.394 -34.3605 266.595C-16.7699 345.938 -40.1526 437.259 15.9952 495.876Z" stroke="#A68100"/>
<path d="M18.0243 485.454C73.6588 543.853 167.01 560.525 245.786 545.856C323.324 531.356 363.537 468.156 422.231 414.82C472.267 370.28 528.704 333.107 549.497 270.589C571.869 207.613 565.059 139.503 538.894 76.6148C513.979 16.7634 467.075 -22.7305 412.828 -58.1105C361.97 -91.4358 306.504 -113.024 245.786 -113.963C185.029 -115.098 127.806 -93.3762 74.9098 -63.3809C15.2006 -29.8202 -55.8297 1.93049 -75.8619 67.3339C-96.4172 134.472 -43.1463 192.081 -27.6769 260.751C-10.2587 338.253 -36.546 427.872 18.0243 485.454Z" stroke="#A68100"/>
<path d="M19.848 475.022C73.6483 532.121 165.042 545.39 241.811 532.058C317.331 518.88 359.63 462.147 417.049 410.707C466.651 367.203 520.15 328.098 539.431 266.152C560.077 204.367 550.432 138.744 524.938 77.3953C500.756 19.2338 458.17 -21.5217 405.604 -56.1045C356.084 -88.8407 301.091 -107.726 241.811 -108.276C182.777 -109.02 127.297 -88.0937 75.7574 -59.2101C17.181 -26.6832 -53.9377 2.95283 -73.0539 67.0745C-92.6714 132.906 -36.5387 187.757 -21.1988 254.896C-3.95286 330.556 -33.1448 418.475 19.848 475.022Z" stroke="#A68100"/>
<path d="M21.4504 464.578C73.4165 520.377 162.852 530.244 237.616 518.248C311.116 506.392 355.502 456.126 411.647 406.582C460.812 364.114 511.375 323.078 529.145 261.704C548.064 201.11 535.585 137.973 510.762 78.1644C487.311 21.693 449.043 -20.3243 398.158 -54.1098C349.977 -86.2568 295.457 -102.439 237.616 -102.6C180.303 -102.954 126.567 -82.8225 76.3839 -55.0506C18.9402 -23.5575 -52.267 3.96382 -70.467 66.8037C-89.1468 131.328 -30.1524 183.422 -14.9419 249.03C2.13167 322.849 -29.9648 409.067 21.4504 464.578Z" stroke="#A68100"/>
<path d="M22.8252 454.118C72.9571 508.618 160.435 515.082 233.192 504.422C304.674 493.888 351.147 450.089 406.016 402.441C454.747 361.01 502.372 318.042 518.63 257.24C535.823 197.836 520.509 137.186 496.357 78.9175C473.639 24.1361 439.689 -19.1428 390.485 -52.131C343.642 -83.6889 289.596 -97.1684 233.192 -96.9403C177.602 -96.903 125.609 -77.5672 76.7826 -50.907C20.4717 -20.4477 -50.8239 4.95887 -68.1078 66.5169C-85.8499 129.735 -23.9937 179.07 -8.9127 243.148C7.98854 315.126 -27.0125 399.642 22.8252 454.118Z" stroke="#A68100"/>
<path d="M23.9702 443.632C72.2679 496.831 157.789 499.894 228.539 490.569C298.003 481.358 346.561 444.025 400.156 398.274C448.451 357.879 493.139 312.979 507.886 252.75C523.352 194.536 505.204 136.373 481.723 79.6439C459.737 26.5525 430.105 -17.988 382.582 -50.1791C337.078 -81.1478 283.505 -91.9243 228.539 -91.3072C174.672 -90.8794 124.422 -72.3388 76.9516 -46.7903C21.7734 -17.3649 -49.6107 5.92711 -65.9784 66.2034C-82.7829 128.115 -18.0648 174.692 -3.11326 237.24C13.6157 307.375 -24.29 390.191 23.9702 443.632Z" stroke="#A68100"/>
<path d="M24.8896 433.114C71.3531 485.013 154.916 484.673 223.66 476.685C291.105 468.796 341.75 437.93 394.07 394.075C441.93 354.716 483.68 307.884 496.916 248.227C510.656 191.205 489.673 135.528 466.864 80.3387C445.609 28.9373 420.296 -16.8649 374.454 -48.2587C330.288 -78.6384 277.188 -86.7119 223.66 -85.7058C171.516 -84.8873 123.009 -67.1419 76.8951 -42.7052C22.8496 -14.3135 -48.6229 6.86378 -64.0745 65.8583C-79.9413 126.463 -12.3614 170.283 2.46065 231.3C19.0173 299.594 -21.793 380.708 24.8896 433.114Z" stroke="#A68100"/>
<path d="M25.5958 422.544C70.2252 473.144 151.831 469.402 218.568 462.75C283.995 456.183 336.726 431.783 387.771 389.824C435.196 351.502 474.009 302.739 485.733 243.654C497.746 187.822 473.929 134.632 451.791 80.9824C431.268 31.271 410.273 -15.7929 366.112 -46.3894C323.284 -76.18 270.658 -81.5504 218.568 -80.1555C168.146 -78.9463 121.382 -61.9961 76.6253 -38.6711C23.7125 -11.3132 -47.8485 7.74934 -62.384 65.4621C-77.313 124.76 -6.87128 165.822 7.82131 225.308C24.2056 291.761 -19.5092 371.174 25.5958 422.544Z" stroke="#A68100"/>
<path d="M26.0966 411.906C68.8918 461.206 148.539 454.061 213.271 448.745C276.679 443.501 331.497 425.567 381.267 385.505C428.256 348.219 464.132 297.524 474.345 239.011C484.631 184.37 457.98 133.666 436.513 81.5569C416.722 33.5355 400.045 -14.7901 357.565 -44.5894C316.076 -73.7908 263.922 -76.4582 213.271 -74.6744C164.571 -73.0745 119.55 -56.9196 76.15 -34.7064C24.37 -8.38227 -47.2794 8.56569 -60.8988 64.9967C-74.8901 122.988 -1.58661 161.292 12.9765 219.248C29.1885 283.859 -17.431 361.571 26.0966 411.906Z" stroke="#A68100"/>
<path d="M26.4092 401.171C67.3701 449.171 145.06 438.624 207.785 434.644C269.175 430.722 326.079 419.255 374.575 381.089C421.128 344.839 454.066 292.213 462.768 234.272C471.328 180.821 441.842 132.604 421.046 82.0347C401.988 35.7034 389.629 -13.8839 348.829 -42.8859C308.679 -71.4983 256.999 -71.4626 207.785 -69.2899C160.808 -67.2993 117.53 -51.9397 75.4866 -30.8381C24.8393 -5.54783 -46.8986 9.28539 -59.6018 64.4346C-72.6554 121.119 3.50988 156.666 17.9436 213.09C33.9832 275.86 -15.5409 351.871 26.4092 401.171Z" stroke="#A68100"/>
<path d="M26.5494 390.305C65.6763 437.005 141.409 423.056 202.128 420.411C261.498 417.811 320.489 412.812 367.71 376.541C413.828 341.328 443.829 286.77 451.019 229.402C457.852 177.141 425.532 131.411 405.407 82.3813C387.081 37.74 379.04 -13.1089 339.922 -41.3137C301.109 -69.337 249.903 -66.5983 202.128 -64.0367C156.873 -61.6554 115.338 -47.091 74.6509 -27.1012C25.1363 -2.84467 -46.69 9.87389 -58.4771 63.7413C-70.593 119.119 8.43411 151.908 22.7383 206.802C38.6057 267.73 -13.823 342.04 26.5494 390.305Z" stroke="#A68100"/>
</svg>
